<svg width="17" height="18" viewBox="0 0 17 18" xmlns="http://www.w3.org/2000/svg">
  <path d="M8.01156339 1.40005185c1.52792326 0 2.77116931 1.24604615 2.77116931 2.77210267 0 1.53072336-1.24324605 2.77210267-2.77116931 2.77210267S5.24086077 5.70287788 5.24086077 4.17215452c0-1.52605652 1.24277936-2.77210267 2.77070262-2.77210267zm0 6.9442572c2.29981851 0 4.17122111-1.87140265 4.17122111-4.17215453S10.3113819 0 8.01156339 0C5.71174488 0 3.84080892 1.87140264 3.84080892 4.17215452c0 2.30075188 1.87093596 4.17215453 4.17075447 4.17215453zm6.61151151 8.25563905H1.40005185v-3.2481203c0-.8213637.32154525-1.6240601.86009853-2.151413.27534353-.2706767.72896033-.5973554 1.37625097-.5786881.35701322.0093337 1.46305419-.0046668 2.80803733-.0093336 2.0095411-.0093337 4.54410162-.0233342 5.85548352-.0233342 1.5960591 0 2.3231527 1.3020482 2.3231527 2.5107596v3.5001296zM12.2999222 9.189007c-1.3127819 0-3.85014258.01400052-5.86201709.0233342-1.33518279.00466684-2.43795696.00933368-2.78236972.00933368h-.00513352c-.86709878-.01400052-1.71086337.3313456-2.37075448.98003632C.47835105 10.9857402 0 12.1617838 0 13.3518278v3.9481463C0 17.6826549.31314493 18 .70002593 18H15.3231009c.3864143 0 .7000259-.3173451.7000259-.7000259v-4.2001556c0-1.8947368-1.3048483-3.9108115-3.7232046-3.9108115z" fill="silver" fill-rule="evenodd"/>
</svg>