<svg width="14" height="19" viewBox="0 0 14 19" xmlns="http://www.w3.org/2000/svg">
  <path d="M6.14777233 12.9878596v.707417c0 .3298631.26667239.596138.59613798.596138.32906817 0 .59613798-.2662749.59613798-.596138v-.7113913c.36523388-.2106354.61481698-.6001122.61481698-1.0492028 0-.6676746-.54328042-1.2121473-1.21095496-1.2121473-.66807197 0-1.21135239.5444727-1.21135239 1.2121473 0 .4411421.2384552.8385674.61521441 1.0531771m6.13545217 2.5872388c0 .1430731-.0333838 1.4188084-1.1914812 1.4664995-1.72840268.0675623-8.5994891.0079485-8.68493554.0039742-.10611256 0-1.03688267-.0516653-1.21453179-1.7168774V8.4214426H12.2832245v7.1536558zM6.72006479 1.19227597c3.34830831 0 3.54026481 2.77800301 3.55099531 3.076072v2.96081866H3.16946695l-.00039742-2.79787428c.00357683-.13512461.11883017-3.23901638 3.55099526-3.23901638zm6.15929771 6.03689066H11.463336l-.0003974-2.97671567C11.4255806 2.78197726 10.385916 0 6.72006479 0 3.05381618 0 2.01454896 2.87735934 1.97719098 4.41539534v2.81377129h-1.381053C.26706982 7.22916663 0 7.4954416 0 7.82530461v7.53518409c0 .0198713.00119228.0397426.0031794.0596138.23010927 2.2931442 1.69859583 2.8614624 2.40839746 2.8177456.18082852.0039742 2.95247273.0278198 5.39822817.0278198 1.39853971 0 2.69096687-.0079486 3.33042417-.0317941 1.8468355-.0755108 2.3352712-1.7725169 2.3352712-2.6587754V7.82530461c0-.32986301-.2670698-.59613798-.5961379-.59613798z" fill="silver" fill-rule="evenodd"/>
</svg>