<svg width="52px" height="52px" viewBox="0 0 52 52" version="1.1" xmlns="http://www.w3.org/2000/svg">
    <g fill="none" fill-rule="evenodd">
        <g transform="translate(-291.000000, -605.000000)">
            <g transform="translate(291.000000, 605.000000)">
                <circle id="btn" stroke="#E7E7E7" stroke-width="2" cx="26" cy="26" r="25"></circle>
                <path d="M26,28.8181818 C23.4224444,28.8181818 21.3333333,26.3959909 21.3333333,23.4090909 C21.3333333,20.4221909 23.4224444,18 26,18 C28.5775556,18 30.6666667,20.4221909 30.6666667,23.4090909 C30.6666667,26.3959909 28.5775556,28.8181818 26,28.8181818 Z M26,29.8921426 C29.0362262,29.8921426 30.7411499,27.5661788 31.4545322,25.732838 C32.3409867,26.3130647 33,28.6722346 33,29.6865686 L33,31.8119412 C33,33.572281 31.2900909,35 29.1818182,35 L22.8181818,35 C20.7099091,35 19,33.572281 19,31.8119412 L19,29.6865686 C19,28.6722346 19.6736108,26.3130647 20.5600654,25.732838 C21.2511122,27.5131669 22.9637738,29.8921426 26,29.8921426 Z" id="ic_tab1_mask" fill="#E7E7E7"></path>
            </g>
        </g>
    </g>
</svg>