<svg width="18" height="18" viewBox="0 0 18 18" xmlns="http://www.w3.org/2000/svg">
  <path d="M10.9657863 9.5672269l-1.0396158-.6002401.5558223-2.7629052-2.1152461 1.8625451-1.0396158-.6002401 4.4285714-3.46818732-.789916 5.56902762zm-3.1698679-.2707083c0-.4969988.4033613-.9003601.9003601-.9003601s.9003602.4033613.9003602.9003601-.4033614.9003602-.9003602.9003602c-.4969988 0-.9003601-.4033614-.9003601-.9003602zM5.637455 14.5948379l.7893157-5.5690276 1.0396159.6002401-.5558224 2.7629052 2.1152461-1.862545 1.0396159.6002401-4.4279712 3.4681872zM9 0C4.0294118 0 0 4.030012 0 9c0 4.9705882 4.0294118 9 9 9s9-4.0294118 9-9c0-4.969988-4.0294118-9-9-9z" fill="#FFFFFE" fill-rule="evenodd"/>
</svg>