<svg width="52px" height="52px" viewBox="0 0 52 52" version="1.1" xmlns="http://www.w3.org/2000/svg">
    <g fill="none" fill-rule="evenodd">
        <g transform="translate(-32.000000, -605.000000)">
            <g transform="translate(32.000000, 605.000000)">
                <circle id="btn" stroke="#E7E7E7" stroke-width="2" cx="26" cy="26" r="25"></circle>
                <path d="M31.240556,25.6247424 L22.27855,20.2152698 C21.8029578,19.9281959 21.2351451,19.9283098 20.759553,20.2152129 C20.2839608,20.5022299 20,21.0164116 20,21.5905025 L20,32.4094476 C20,32.9835385 20.2839063,33.4976634 20.759553,33.7847373 C20.9973218,33.9283027 21.2580777,34 21.5189425,34 C21.7798618,34 22.0407267,33.9281319 22.2784955,33.7846803 L31.2406104,28.3752647 C31.7161481,28.0881339 32,27.574009 32,26.9999181 C32,26.4258842 31.7160937,25.9117594 31.240556,25.6247424 Z" id="Shape" fill="#E7E7E7" fill-rule="nonzero" transform="translate(26.000000, 27.000000) rotate(-270.000000) translate(-26.000000, -27.000000) "></path>
            </g>
        </g>
    </g>
</svg>