<?xml version="1.0" encoding="UTF-8"?>
<svg width="48px" height="48px" viewBox="0 0 48 48" version="1.1" xmlns="http://www.w3.org/2000/svg" xmlns:xlink="http://www.w3.org/1999/xlink">
    <title>play-button</title>
    <g id="Page-1" stroke="none" stroke-width="1" fill="none" fill-rule="evenodd">
        <g id="play-button" fill-rule="nonzero">
            <path d="M24,0 C10.7453437,0 0,10.7451562 0,24 C0,37.2548437 10.7453437,48 24,48 C37.2546562,48 48,37.2548437 48,24 C48,10.7451563 37.2546562,0 24,0 Z" id="Path" fill="#000000" opacity="0.800000012"></path>
            <path d="M32.295,25.2721875 L20.295,32.7721875 C20.0521875,32.9237813 19.7760938,33 19.5,33 C19.249875,33 18.999375,32.93775 18.7726875,32.81175 C18.295875,32.547375 18,32.045625 18,31.5 L18,16.5 C18,15.954375 18.295875,15.452625 18.7726875,15.18825 C19.2495,14.922375 19.8325312,14.9385 20.295,15.2278125 L32.295,22.7278125 C32.733375,23.0025 33,23.4829688 33,24 C33,24.5170313 32.733375,24.9975938 32.295,25.2721875 Z" id="Path" fill="#FFFFFF"></path>
        </g>
    </g>
</svg>