<?xml version="1.0" encoding="UTF-8"?>
<svg width="112px" height="52px" viewBox="0 0 112 52" version="1.1" xmlns="http://www.w3.org/2000/svg" xmlns:xlink="http://www.w3.org/1999/xlink">
    <!-- Generator: Sketch 58 (84663) - https://sketch.com -->
    <title>card_desktop_icon</title>
    <desc>Created with Sketch.</desc>
    <g id="Page-1" stroke="none" stroke-width="1" fill="none" fill-rule="evenodd">
        <g id="Artboard">
            <g id="card_desktop_icon">
                <rect id="container" fill-opacity="0.7" fill="#FFFFFF" x="0" y="0" width="112" height="52" rx="4"></rect>
                <g id="card" transform="translate(7.000000, 20.000000)" fill-rule="nonzero">
                    <path d="M36.270122,27.5999984 L2.12987573,27.5999984 C0.952717185,27.5999984 0,26.6537127 0,25.4859699 L0,2.11402844 C0,0.94628566 0.952717185,0 2.12987573,0 L36.270122,0 C37.4466185,0 38.3999977,0.94628566 38.3999977,2.11402844 L38.3999977,25.4859699 C38.3999977,26.6537127 37.4466185,27.5999984 36.270122,27.5999984" id="XMLID_130_" fill="#6BBEA1"></path>
                    <rect id="XMLID_129_" fill="#498679" x="3.31034463" y="19.0571417" width="5.95862033" height="3.94285691"></rect>
                    <rect id="XMLID_128_" fill="#498679" x="11.9172407" y="19.0571417" width="5.95862033" height="3.94285691"></rect>
                    <rect id="XMLID_127_" fill="#498679" x="20.5241367" y="19.0571417" width="5.95862033" height="3.94285691"></rect>
                    <rect id="XMLID_126_" fill="#498679" x="29.1310327" y="19.0571417" width="5.95862033" height="3.94285691"></rect>
                    <path d="M13.0725509,11.8285707 L4.14124114,11.8285707 C3.68308944,11.8285707 3.31034463,11.4592565 3.31034463,11.0038565 L3.31034463,4.76757114 C3.31034463,4.31217117 3.68308944,3.94285691 4.14124114,3.94285691 L13.0725509,3.94285691 C13.5313647,3.94285691 13.9034475,4.31217117 13.9034475,4.76757114 L13.9034475,11.0038565 C13.9034475,11.4592565 13.5313647,11.8285707 13.0725509,11.8285707" id="XMLID_125_" fill="#F0C41B"></path>
                    <path d="M13.0725509,12.4857135 L4.14124114,12.4857135 C3.31828946,12.4857135 2.6482757,11.820685 2.6482757,11.0038565 L2.6482757,4.76757114 C2.6482757,3.95074262 3.31828946,3.28571409 4.14124114,3.28571409 L13.0725509,3.28571409 C13.8955026,3.28571409 14.5655164,3.95074262 14.5655164,4.76757114 L14.5655164,11.0038565 C14.5655164,11.820685 13.8955026,12.4857135 13.0725509,12.4857135 L13.0725509,12.4857135 Z M4.14124114,4.59999973 C4.04722734,4.59999973 3.97241356,4.67491401 3.97241356,4.76757114 L3.97241356,11.0038565 C3.97241356,11.0965136 4.04722734,11.1714279 4.14124114,11.1714279 L13.0725509,11.1714279 C13.1659027,11.1714279 13.2413785,11.0965136 13.2413785,11.0038565 L13.2413785,4.76757114 C13.2413785,4.67491401 13.1659027,4.59999973 13.0725509,4.59999973 L4.14124114,4.59999973 Z" id="XMLID_122_" fill="#F3D55C"></path>
                    <path d="M13.9034475,4.76757114 C13.9034475,4.31151403 13.5313647,3.94285691 13.0725509,3.94285691 L9.93103387,3.94285691 L8.11365468,3.94285691 C7.65417884,3.94285691 7.28275817,4.31151403 7.28275817,4.76757114 L7.28275817,6.57142821 L7.28275817,11.0038565 C7.28275817,11.4592565 7.65417884,11.8285707 8.11365468,11.8285707 L9.10013742,11.8285707 C9.55895115,11.8285707 9.93103387,11.4592565 9.93103387,11.0038565 L9.93103387,7.39614244 C9.93103387,6.94074247 10.3024545,6.57142821 10.7619304,6.57142821 L13.0725509,6.57142821 C13.5313647,6.57142821 13.9034475,6.20211389 13.9034475,5.74671394 L13.9034475,4.76757114 Z" id="XMLID_121_" fill="#F0C41B"></path>
                    <path d="M9.10013742,12.4857135 L8.11365468,12.4857135 C7.29070301,12.4857135 6.62068929,11.820685 6.62068929,11.0038565 L6.62068929,4.76757114 C6.62068929,3.95074262 7.29070301,3.28571409 8.11365468,3.28571409 L13.0725509,3.28571409 C13.8955026,3.28571409 14.5655164,3.95074262 14.5655164,4.76757114 L14.5655164,5.74671394 C14.5655164,6.56354247 13.8955026,7.22857097 13.0725509,7.22857097 L10.7619304,7.22857097 C10.6679166,7.22857097 10.5931028,7.30348528 10.5931028,7.39614244 L10.5931028,11.0038565 C10.5931028,11.820685 9.92308909,12.4857135 9.10013742,12.4857135 L9.10013742,12.4857135 Z M8.11365468,4.59999973 C8.01964092,4.59999973 7.94482711,4.67491401 7.94482711,4.76757114 L7.94482711,11.0038565 C7.94482711,11.0965136 8.01964092,11.1714279 8.11365468,11.1714279 L9.10013742,11.1714279 C9.19348913,11.1714279 9.26896499,11.0965136 9.26896499,11.0038565 L9.26896499,7.39614244 C9.26896499,6.57931389 9.93897871,5.91428536 10.7619304,5.91428536 L13.0725509,5.91428536 C13.1659027,5.91428536 13.2413785,5.83937108 13.2413785,5.74671394 L13.2413785,4.76757114 C13.2413785,4.67491401 13.1659027,4.59999973 13.0725509,4.59999973 L8.11365468,4.59999973 Z" id="XMLID_118_" fill="#F3D55C"></path>
                    <path d="M9.93103387,9.19999943 L13.9034475,9.19999943" id="XMLID_117_" fill="#F0C41B"></path>
                    <path d="M13.9034475,9.85714225 L9.93103387,9.85714225 C9.56490975,9.85714225 9.26896499,9.56274231 9.26896499,9.19999943 C9.26896499,8.83725661 9.56490975,8.54285661 9.93103387,8.54285661 L13.9034475,8.54285661 C14.2695716,8.54285661 14.5655164,8.83725661 14.5655164,9.19999943 C14.5655164,9.56274231 14.2695716,9.85714225 13.9034475,9.85714225" id="XMLID_116_" fill="#F3D55C"></path>
                    <path d="M7.28275817,6.57142821 L3.31034463,6.57142821" id="XMLID_115_" fill="#F0C41B"></path>
                    <path d="M7.28275817,7.22857097 L3.31034463,7.22857097 C2.94422051,7.22857097 2.6482757,6.93417103 2.6482757,6.57142821 C2.6482757,6.20868533 2.94422051,5.91428536 3.31034463,5.91428536 L7.28275817,5.91428536 C7.64888228,5.91428536 7.94482711,6.20868533 7.94482711,6.57142821 C7.94482711,6.93417103 7.64888228,7.22857097 7.28275817,7.22857097" id="XMLID_114_" fill="#F3D55C"></path>
                    <path d="M7.28275817,9.19999943 L3.31034463,9.19999943" id="XMLID_113_" fill="#F0C41B"></path>
                    <path d="M7.28275817,9.85714225 L3.31034463,9.85714225 C2.94422051,9.85714225 2.6482757,9.56274231 2.6482757,9.19999943 C2.6482757,8.83725661 2.94422051,8.54285661 3.31034463,8.54285661 L7.28275817,8.54285661 C7.64888228,8.54285661 7.94482711,8.83725661 7.94482711,9.19999943 C7.94482711,9.56274231 7.64888228,9.85714225 7.28275817,9.85714225" id="XMLID_112_" fill="#F3D55C"></path>
                    <path d="M26.482757,3.28571409 L20.5241367,3.28571409 C20.1580126,3.28571409 19.8620678,3.58011407 19.8620678,3.94285691 C19.8620678,4.30559974 20.1580126,4.59999973 20.5241367,4.59999973 L26.482757,4.59999973 C26.8488811,4.59999973 27.144826,4.30559974 27.144826,3.94285691 C27.144826,3.58011407 26.8488811,3.28571409 26.482757,3.28571409" id="XMLID_111_" fill="#498679"></path>
                    <path d="M35.751722,3.94285691 C35.751722,3.58011407 35.4557772,3.28571409 35.0896531,3.28571409 L29.1310327,3.28571409 C28.7649086,3.28571409 28.4689638,3.58011407 28.4689638,3.94285691 C28.4689638,4.30559974 28.7649086,4.59999973 29.1310327,4.59999973 L35.0896531,4.59999973 C35.4557772,4.59999973 35.751722,4.30559974 35.751722,3.94285691" id="XMLID_110_" fill="#498679"></path>
                    <path d="M21.1862056,6.57142821 L20.5241367,6.57142821 C20.1580126,6.57142821 19.8620678,6.86582815 19.8620678,7.22857097 C19.8620678,7.59131385 20.1580126,7.88571379 20.5241367,7.88571379 L21.1862056,7.88571379 C21.5523297,7.88571379 21.8482746,7.59131385 21.8482746,7.22857097 C21.8482746,6.86582815 21.5523297,6.57142821 21.1862056,6.57142821" id="XMLID_109_" fill="#498679"></path>
                    <path d="M25.1586192,6.57142821 L23.8344813,6.57142821 C23.4683572,6.57142821 23.1724124,6.86582815 23.1724124,7.22857097 C23.1724124,7.59131385 23.4683572,7.88571379 23.8344813,7.88571379 L25.1586192,7.88571379 C25.5247433,7.88571379 25.8206881,7.59131385 25.8206881,7.22857097 C25.8206881,6.86582815 25.5247433,6.57142821 25.1586192,6.57142821" id="XMLID_108_" fill="#498679"></path>
                    <path d="M28.4689638,6.57142821 L27.8068949,6.57142821 C27.4407708,6.57142821 27.144826,6.86582815 27.144826,7.22857097 C27.144826,7.59131385 27.4407708,7.88571379 27.8068949,7.88571379 L28.4689638,7.88571379 C28.835088,7.88571379 29.1310327,7.59131385 29.1310327,7.22857097 C29.1310327,6.86582815 28.835088,6.57142821 28.4689638,6.57142821" id="XMLID_107_" fill="#498679"></path>
                    <path d="M32.4413774,6.57142821 L31.1172395,6.57142821 C30.7511154,6.57142821 30.4551706,6.86582815 30.4551706,7.22857097 C30.4551706,7.59131385 30.7511154,7.88571379 31.1172395,7.88571379 L32.4413774,7.88571379 C32.8075015,7.88571379 33.1034463,7.59131385 33.1034463,7.22857097 C33.1034463,6.86582815 32.8075015,6.57142821 32.4413774,6.57142821" id="XMLID_106_" fill="#498679"></path>
                    <path d="M34.6195841,6.7619996 C34.4997497,6.88685671 34.4275841,7.05771384 34.4275841,7.22857097 C34.4275841,7.39942816 34.4997497,7.57028529 34.6195841,7.6951424 C34.7447152,7.81342813 34.9102324,7.88571379 35.0896531,7.88571379 C35.261791,7.88571379 35.4332669,7.81342813 35.559722,7.6951424 C35.6788944,7.57028529 35.751722,7.39942816 35.751722,7.22857097 C35.751722,7.05771384 35.6788944,6.88685671 35.559722,6.7619996 C35.3081359,6.51885675 34.8645496,6.51885675 34.6195841,6.7619996" id="XMLID_105_" fill="#498679"></path>
                </g>
                <path d="M8.991,8.908 L9.596,6.026 L11.807,6.026 C11.9830009,6.026 12.1479992,6.04799978 12.302,6.092 C12.4560008,6.13600022 12.5916661,6.20749951 12.709,6.3065 C12.8263339,6.4055005 12.919833,6.53749918 12.9895,6.7025 C13.059167,6.86750083 13.094,7.07099879 13.094,7.313 C13.094,7.78233568 12.9473348,8.16549852 12.654,8.4625 C12.3606652,8.75950148 11.9280029,8.908 11.356,8.908 L8.991,8.908 Z M8.716,5.146 L7.077,13 L8.122,13 L8.804,9.788 L11.136,9.788 C11.7153362,9.788 12.1974981,9.70550082 12.5825,9.5405 C12.9675019,9.37549917 13.2754988,9.16833458 13.5065,8.919 C13.7375012,8.66966542 13.9006662,8.40016811 13.996,8.1105 C14.0913338,7.82083189 14.139,7.55500121 14.139,7.313 C14.139,6.58699637 13.9391687,6.04433513 13.5395,5.685 C13.1398313,5.32566487 12.5623371,5.146 11.807,5.146 L8.716,5.146 Z M14.4457059,9.029 L15.3807059,9.029 C15.4100394,8.84566575 15.4723721,8.68983398 15.5677059,8.5615 C15.6630397,8.43316603 15.7803719,8.32683376 15.9197059,8.2425 C16.0590399,8.15816625 16.2148717,8.09766685 16.3872059,8.061 C16.5595401,8.02433315 16.733705,8.006 16.9097059,8.006 C17.0343732,8.006 17.1645386,8.01699989 17.3002059,8.039 C17.4358733,8.06100011 17.5587054,8.09949972 17.6687059,8.1545 C17.7787065,8.20950027 17.8703722,8.28466619 17.9437059,8.38 C18.0170396,8.47533381 18.0537059,8.59999923 18.0537059,8.754 C18.0537059,8.94466762 18.0262062,9.09499945 17.9712059,9.205 C17.9162056,9.31500055 17.8300398,9.39933304 17.7127059,9.458 C17.595372,9.51666696 17.4468735,9.5588332 17.2672059,9.5845 L16.971581,9.62162501 L16.971581,9.62162501 L16.6237059,9.656 C16.308371,9.68533348 15.9820409,9.72199978 15.6447059,9.766 C15.3073709,9.81000022 14.999374,9.89249939 14.7207059,10.0135 C14.4420379,10.1345006 14.2128735,10.3123322 14.0332059,10.547 C13.8535383,10.7816678 13.7637059,11.1079979 13.7637059,11.526 C13.7637059,11.8193348 13.8095388,12.0668323 13.9012059,12.2685 C13.992873,12.4701677 14.1157051,12.635166 14.2697059,12.7635 C14.4237067,12.891834 14.6052049,12.9834997 14.8142059,13.0385 C15.023207,13.0935003 15.2487047,13.121 15.4907059,13.121 C15.9747083,13.121 16.3633711,13.051334 16.6567059,12.912 C16.9500407,12.772666 17.1957049,12.5710013 17.3937059,12.307 L17.4157059,12.329 C17.3863724,12.5783346 17.4377053,12.772666 17.5697059,12.912 C17.7017066,13.051334 17.896038,13.121 18.1527059,13.121 C18.233373,13.121 18.3305387,13.1081668 18.4442059,13.0825 C18.5578731,13.0568332 18.6513722,13.0293335 18.7247059,13 L18.8677059,12.307 L18.7192059,12.3565 C18.6642056,12.3748334 18.6147061,12.384 18.5707059,12.384 C18.4900388,12.384 18.4240395,12.3583336 18.3727059,12.307 C18.3213723,12.2556664 18.2957059,12.1640007 18.2957059,12.032 C18.2957059,11.8999993 18.3158724,11.7606674 18.3562059,11.614 C18.3965394,11.4673326 18.4277058,11.3353339 18.4497059,11.218 L18.8884836,9.33700024 C18.9015207,9.27833366 18.9147614,9.21783365 18.9282059,9.1555 C18.9685394,8.96849906 18.9887059,8.79433414 18.9887059,8.633 C18.9887059,8.34699857 18.9318731,8.11050094 18.8182059,7.9235 C18.7045387,7.73649907 18.5523735,7.58800055 18.3617059,7.478 C18.1710383,7.36799945 17.9510405,7.29100022 17.7017059,7.247 C17.4523713,7.20299978 17.188374,7.181 16.9097059,7.181 C16.6090377,7.181 16.319374,7.2176663 16.0407059,7.291 C15.7620379,7.3643337 15.512707,7.47799923 15.2927059,7.632 C15.0727048,7.78600077 14.88754,7.97849885 14.7372059,8.2095 C14.5868718,8.44050115 14.4897061,8.71366509 14.4457059,9.029 Z M14.6877059,11.515 C14.6950393,11.2729988 14.757372,11.0841673 14.8747059,10.9485 C14.9920398,10.8128327 15.1423717,10.7083337 15.3257059,10.635 C15.5090402,10.5616663 15.7162048,10.5085002 15.9472059,10.4755 L16.2923309,10.430125 L16.2923309,10.430125 L16.6347059,10.393 C16.8620404,10.3709999 17.0765382,10.3398335 17.2782059,10.2995 C17.4798736,10.2591665 17.6467053,10.1913338 17.7787059,10.096 L17.8007059,10.096 C17.7347056,10.3600013 17.6742062,10.6166654 17.6192059,10.866 C17.5642056,11.1153346 17.4597067,11.3463323 17.3057059,11.559 C16.9830376,12.0576692 16.4513763,12.307 15.7107059,12.307 C15.4467046,12.307 15.210207,12.2410007 15.0012059,12.109 C14.7922049,11.9769993 14.6877059,11.7790013 14.6877059,11.515 Z M21.0994118,13.957 L24.8614118,7.313 L23.8384118,7.313 L21.4514118,11.834 L21.4294118,11.834 L20.7694118,7.313 L19.7684118,7.313 L20.7694118,13 L20.1974118,13.935 C20.0874113,14.1183343 19.9664125,14.2668328 19.8344118,14.3805 C19.7024112,14.4941672 19.5300796,14.551 19.3174118,14.551 C19.2440781,14.551 19.156079,14.5363335 19.0534118,14.507 C18.9507446,14.4776665 18.8627455,14.4410002 18.7894118,14.397 L18.6244118,15.156 C18.7124123,15.2000002 18.8150779,15.2348332 18.9324118,15.2605 C19.0497457,15.2861668 19.1634113,15.299 19.2734118,15.299 C19.5080797,15.299 19.7134109,15.264167 19.8894118,15.1945 C20.0654127,15.124833 20.2230778,15.0295006 20.3624118,14.9085 C20.5017459,14.7874994 20.6300779,14.6445008 20.7474118,14.4795 C20.8647457,14.3144992 20.9820779,14.1403343 21.0994118,13.957 Z M34.3298236,13 L37.9378236,5.146 L36.8598236,5.146 L33.9998236,11.779 L33.9778236,11.779 L33.5378236,5.146 L32.3498236,5.146 L29.3358236,11.757 L29.3138236,11.757 L29.0388236,5.146 L28.0048236,5.146 L28.4998236,13 L29.6218236,13 L32.7238236,6.224 L32.7458236,6.224 L33.2408236,13 L34.3298236,13 Z M39.3335296,6.29 L39.5755296,5.146 L38.6295296,5.146 L38.3875296,6.29 L39.3335296,6.29 Z M38.1785296,7.313 L37.0015296,13 L37.9255296,13 L39.1135296,7.313 L38.1785296,7.313 Z M41.6532355,7.313 L42.0052355,5.63 L41.0702355,5.63 L40.7182355,7.313 L39.7612355,7.313 L39.5852355,8.138 L40.5422355,8.138 L39.7942355,11.669 L39.7557355,11.911 L39.7557355,11.911 C39.7447354,11.9843337 39.7392355,12.0613329 39.7392355,12.142 C39.7392355,12.3253343 39.7740685,12.4756661 39.8437355,12.593 C39.9134025,12.7103339 40.0050682,12.803833 40.1187355,12.8735 C40.2324027,12.943167 40.3662347,12.9908332 40.5202355,13.0165 C40.6742362,13.0421668 40.8392346,13.055 41.0152355,13.055 C41.125236,13.055 41.2352349,13.0495001 41.3452355,13.0385 L41.6752355,13 L41.6752355,13 L41.8402355,12.142 C41.752235,12.1713335 41.6642359,12.1951666 41.5762355,12.2135 C41.488235,12.2318334 41.3965693,12.241 41.3012355,12.241 C41.1545681,12.241 41.0244027,12.2135003 40.9107355,12.1585 C40.7970682,12.1034997 40.7402355,12.0026674 40.7402355,11.856 L40.7429855,11.75975 L40.7429855,11.75975 L40.7732355,11.482 L40.7732355,11.482 L41.4772355,8.138 L42.6102355,8.138 L42.7862355,7.313 L41.6532355,7.313 Z M44.0279414,5.146 L42.3779414,13 L43.3019414,13 L43.9619414,9.854 C44.0206083,9.62666553 44.0976076,9.40850105 44.1929414,9.1995 C44.2644417,9.04274922 44.3565661,8.90353127 44.4693161,8.78184391 L44.5889414,8.666 C44.7649423,8.47533238 44.9794401,8.31766729 45.2324414,8.193 C45.4854426,8.06833271 45.7402734,8.006 45.9969414,8.006 C46.2756094,8.006 46.5102738,8.07016603 46.7009414,8.1985 C46.891609,8.32683397 46.9869414,8.52666531 46.9869414,8.798 C46.9869414,8.84933359 46.9814414,8.91349961 46.9704414,8.9905 L46.9099414,9.35625001 L46.9099414,9.35625001 L46.8879414,9.4745 C46.8732746,9.55150039 46.8622747,9.61933304 46.8549414,9.678 L46.1289414,13 L47.0639414,13 L47.7569414,9.755 C47.808275,9.5349989 47.8486079,9.32600099 47.8779414,9.128 C47.9072749,8.92999901 47.9219414,8.76866729 47.9219414,8.644 C47.9219414,8.13799747 47.791776,7.76766784 47.5314414,7.533 C47.2711067,7.29833216 46.8732774,7.181 46.3379414,7.181 C45.9419394,7.181 45.5642765,7.26349917 45.2049414,7.4285 C44.8456062,7.59350082 44.5486092,7.84099835 44.3139414,8.171 L44.2919414,8.149 L44.9629414,5.146 L44.0279414,5.146 Z M58.3253532,10.349 L57.2803532,10.349 C57.1116857,10.9723365 56.8256886,11.4544983 56.4223532,11.7955 C56.0190179,12.1365017 55.4946898,12.307 54.8493532,12.307 C54.4533512,12.307 54.1105213,12.2446673 53.8208532,12.12 C53.5311851,11.9953327 53.2910208,11.8211678 53.1003532,11.5975 C52.9096856,11.3738322 52.766687,11.1043349 52.6713532,10.789 C52.5760194,10.4736651 52.5283532,10.1253352 52.5283532,9.744 C52.5283532,9.26733095 52.5961859,8.796169 52.7318532,8.3305 C52.8675205,7.86483101 53.0710185,7.4486685 53.3423532,7.082 C53.6136879,6.7153315 53.9528512,6.41650116 54.3598532,6.1855 C54.7668552,5.95449884 55.2453505,5.839 55.7953532,5.839 C56.3673561,5.839 56.8348514,5.99116515 57.1978532,6.2955 C57.560855,6.59983486 57.7423532,7.05999692 57.7423532,7.676 L58.7873532,7.676 C58.7873532,7.22133106 58.710354,6.8235017 58.5563532,6.4825 C58.4023524,6.1414983 58.1915212,5.85916779 57.9238532,5.6355 C57.6561852,5.41183222 57.340855,5.24316724 56.9778532,5.1295 C56.6148514,5.01583276 56.2206887,4.959 55.7953532,4.959 C55.1280165,4.959 54.5266892,5.08916536 53.9913532,5.3495 C53.4560172,5.60983464 53.0031884,5.9599978 52.6328532,6.4 C52.262518,6.8400022 51.9783542,7.34783046 51.7803532,7.9235 C51.5823522,8.49916955 51.4833532,9.10599681 51.4833532,9.744 C51.4833532,10.8366721 51.7748503,11.6818303 52.3578532,12.2795 C52.9408561,12.8771697 53.7713478,13.176 54.8493532,13.176 C55.817358,13.176 56.5891837,12.9248358 57.1648532,12.4225 C57.7405227,11.9201642 58.1273522,11.2290044 58.3253532,10.349 Z M59.8750591,7.313 L58.6980591,13 L59.6220591,13 L60.1610591,10.481 C60.2050593,10.2683323 60.2637254,10.0391679 60.3370591,9.7935 C60.4103928,9.5478321 60.5093918,9.33333425 60.6340591,9.15 C60.7807265,8.92266553 60.9548914,8.72833414 61.1565591,8.567 C61.3582268,8.40566586 61.5873912,8.29200033 61.8440591,8.226 C61.9540597,8.19666652 62.0457254,8.18016668 62.1190591,8.1765 L62.4050591,8.171 L62.4050591,8.171 L62.5370591,8.171 C62.6030594,8.171 62.6507256,8.17466663 62.6800591,8.182 L62.9000591,7.181 C62.8609478,7.1712222 62.8234665,7.16633331 62.7876147,7.16633331 L62.6553091,7.17825001 L62.6553091,7.17825001 L62.5700591,7.181 C62.0933901,7.181 61.6845608,7.30933205 61.3435591,7.566 C61.0025574,7.82266795 60.7220602,8.14533139 60.5020591,8.534 L60.4800591,8.534 L60.7550591,7.313 L59.8750591,7.313 Z M63.019765,10.437 L67.298765,10.437 L67.353765,10.118 L67.353765,10.118 C67.3757651,9.98599934 67.386765,9.8466674 67.386765,9.7 C67.386765,8.90066267 67.1942669,8.2810022 66.809265,7.841 C66.4242631,7.4009978 65.8137692,7.181 64.977765,7.181 C64.5890964,7.181 64.2169335,7.26899912 63.861265,7.445 C63.5055966,7.62100088 63.193933,7.87033172 62.926265,8.193 C62.658597,8.51566828 62.4459325,8.90249774 62.288265,9.3535 C62.1305976,9.80450225 62.051765,10.3013306 62.051765,10.844 C62.051765,11.0933346 62.0884313,11.351832 62.161765,11.6195 C62.2350987,11.887168 62.3634308,12.1328322 62.546765,12.3565 C62.7300993,12.5801678 62.9775968,12.7634993 63.289265,12.9065 C63.6009332,13.0495007 63.9914293,13.121 64.460765,13.121 C64.7687666,13.121 65.062097,13.0806671 65.340765,13 C65.6194331,12.9193329 65.8724306,12.8001675 66.099765,12.6425 C66.3270995,12.4848325 66.5214309,12.2868345 66.682765,12.0485 C66.8440992,11.8101655 66.9614313,11.5333349 67.034765,11.218 L66.099765,11.218 C65.9677644,11.5700018 65.7660997,11.8394991 65.494765,12.0265 C65.2234303,12.2135009 64.8787671,12.307 64.460765,12.307 C64.2700974,12.307 64.0867659,12.2758336 63.910765,12.2135 C63.7347641,12.1511664 63.5770991,12.0631672 63.437765,11.9495 C63.298431,11.8358328 63.1884321,11.6928342 63.107765,11.5205 C63.027098,11.3481658 62.986765,11.1520011 62.986765,10.932 C62.986765,10.7633325 62.9977649,10.5983341 63.019765,10.437 Z M66.451765,9.612 L63.151765,9.612 C63.2177654,9.3919989 63.3057645,9.18483431 63.415765,8.9905 C63.5257656,8.7961657 63.6614309,8.6256674 63.822765,8.479 C63.9840992,8.3323326 64.1729306,8.21683375 64.389265,8.1325 C64.6055994,8.04816625 64.8494303,8.006 65.120765,8.006 C65.377433,8.006 65.5937641,8.05183288 65.769765,8.1435 C65.9457659,8.23516713 66.0869312,8.35616592 66.193265,8.5065 C66.2995989,8.65683408 66.3729315,8.8291657 66.413265,9.0235 C66.4535986,9.21783431 66.4664318,9.41399901 66.451765,9.612 Z M72.5884709,13 L74.2494709,5.146 L73.3254709,5.146 L72.7204709,8.182 L72.6984709,8.182 C72.639804,7.99133238 72.5481382,7.83183398 72.4234709,7.7035 C72.2988036,7.57516603 72.1539718,7.47250039 71.9889709,7.3955 C71.8239701,7.31849962 71.6498052,7.26350016 71.4664709,7.2305 C71.2831367,7.19749984 71.1034718,7.181 70.9274709,7.181 C70.4288018,7.181 69.9833062,7.28916559 69.5909709,7.5055 C69.1986356,7.72183442 68.8686389,8.00233161 68.6009709,8.347 C68.3333029,8.69166839 68.1279716,9.07849786 67.9849709,9.5075 C67.8419702,9.93650215 67.7704709,10.3673312 67.7704709,10.8 C67.7704709,11.1446684 67.8181371,11.4599986 67.9134709,11.746 C68.0088047,12.0320014 68.1518033,12.2758323 68.3424709,12.4775 C68.5331386,12.6791677 68.7678029,12.8368328 69.0464709,12.9505 C69.325139,13.0641672 69.6441358,13.121 70.0034709,13.121 C70.3848062,13.121 70.7239694,13.056834 71.0209709,12.9285 C71.3179724,12.800166 71.6058029,12.5526685 71.8844709,12.186 L71.9064709,12.186 L71.7084709,13 L72.5884709,13 Z M68.7054709,10.8 C68.7054709,10.4846651 68.7531371,10.1620017 68.8484709,9.832 C68.9438047,9.50199835 69.0868033,9.20133469 69.2774709,8.93 C69.4681386,8.65866531 69.7028029,8.43683419 69.9814709,8.2645 C70.260139,8.09216581 70.5864691,8.006 70.9604709,8.006 C71.4224732,8.006 71.776303,8.14533194 72.0219709,8.424 C72.2676388,8.70266806 72.3904709,9.05466454 72.3904709,9.48 C72.3904709,9.7733348 72.3409714,10.0868317 72.2419709,10.4205 C72.1429704,10.7541683 71.9999719,11.0603319 71.8129709,11.339 C71.62597,11.6176681 71.393139,11.8486658 71.1144709,12.032 C70.8358029,12.2153343 70.5204727,12.307 70.1684709,12.307 C69.655135,12.307 69.2829721,12.1713347 69.0519709,11.9 C68.8209698,11.6286653 68.7054709,11.2620023 68.7054709,10.8 Z M76.1291768,6.29 L76.3711768,5.146 L75.4251768,5.146 L75.1831768,6.29 L76.1291768,6.29 Z M74.9741768,7.313 L73.7971768,13 L74.7211768,13 L75.9091768,7.313 L74.9741768,7.313 Z M78.4488828,7.313 L78.8008828,5.63 L77.8658828,5.63 L77.5138828,7.313 L76.5568828,7.313 L76.3808828,8.138 L77.3378828,8.138 L76.5898828,11.669 L76.5513828,11.911 L76.5513828,11.911 C76.5403827,11.9843337 76.5348828,12.0613329 76.5348828,12.142 C76.5348828,12.3253343 76.5697157,12.4756661 76.6393828,12.593 C76.7090498,12.7103339 76.8007155,12.803833 76.9143828,12.8735 C77.02805,12.943167 77.161882,12.9908332 77.3158828,13.0165 C77.4698835,13.0421668 77.6348819,13.055 77.8108828,13.055 C77.9208833,13.055 78.0308822,13.0495001 78.1408828,13.0385 L78.4708828,13 L78.4708828,13 L78.6358828,12.142 C78.5478823,12.1713335 78.4598832,12.1951666 78.3718828,12.2135 C78.2838823,12.2318334 78.1922166,12.241 78.0968828,12.241 C77.9502154,12.241 77.82005,12.2135003 77.7063828,12.1585 C77.5927155,12.1034997 77.5358828,12.0026674 77.5358828,11.856 C77.5358828,11.7899997 77.5395494,11.727667 77.5468828,11.669 L77.5688828,11.482 L77.5688828,11.482 L78.2728828,8.138 L79.4058828,8.138 L79.5818828,7.313 L78.4488828,7.313 Z M89.2702946,10.349 L88.2252946,10.349 C88.0566271,10.9723365 87.7706299,11.4544983 87.3672946,11.7955 C86.9639592,12.1365017 86.4396311,12.307 85.7942946,12.307 C85.3982926,12.307 85.0554627,12.2446673 84.7657946,12.12 C84.4761265,11.9953327 84.2359622,11.8211678 84.0452946,11.5975 C83.854627,11.3738322 83.7116284,11.1043349 83.6162946,10.789 C83.5209608,10.4736651 83.4732946,10.1253352 83.4732946,9.744 C83.4732946,9.26733095 83.5411272,8.796169 83.6767946,8.3305 C83.8124619,7.86483101 84.0159599,7.4486685 84.2872946,7.082 C84.5586293,6.7153315 84.8977925,6.41650116 85.3047946,6.1855 C85.7117966,5.95449884 86.1902918,5.839 86.7402946,5.839 C87.3122974,5.839 87.7797928,5.99116515 88.1427946,6.2955 C88.5057964,6.59983486 88.6872946,7.05999692 88.6872946,7.676 L89.7322946,7.676 C89.7322946,7.22133106 89.6552953,6.8235017 89.5012946,6.4825 C89.3472938,6.1414983 89.1364626,5.85916779 88.8687946,5.6355 C88.6011266,5.41183222 88.2857964,5.24316724 87.9227946,5.1295 C87.5597928,5.01583276 87.16563,4.959 86.7402946,4.959 C86.0729579,4.959 85.4716306,5.08916536 84.9362946,5.3495 C84.4009586,5.60983464 83.9481298,5.9599978 83.5777946,6.4 C83.2074594,6.8400022 82.9232956,7.34783046 82.7252946,7.9235 C82.5272936,8.49916955 82.4282946,9.10599681 82.4282946,9.744 C82.4282946,10.8366721 82.7197917,11.6818303 83.3027946,12.2795 C83.8857975,12.8771697 84.7162892,13.176 85.7942946,13.176 C86.7622994,13.176 87.534125,12.9248358 88.1097946,12.4225 C88.6854641,11.9201642 89.0722936,11.2290044 89.2702946,10.349 Z M90.2700005,9.029 L91.2050005,9.029 C91.234334,8.84566575 91.2966667,8.68983398 91.3920005,8.5615 C91.4873343,8.43316603 91.6046665,8.32683376 91.7440005,8.2425 C91.8833345,8.15816625 92.0391663,8.09766685 92.2115005,8.061 C92.3838347,8.02433315 92.5579996,8.006 92.7340005,8.006 C92.8586678,8.006 92.9888331,8.01699989 93.1245005,8.039 C93.2601678,8.06100011 93.3829999,8.09949972 93.4930005,8.1545 C93.603001,8.20950027 93.6946668,8.28466619 93.7680005,8.38 C93.8413342,8.47533381 93.8780005,8.59999923 93.8780005,8.754 C93.8780005,8.94466762 93.8505008,9.09499945 93.7955005,9.205 C93.7405002,9.31500055 93.6543344,9.39933304 93.5370005,9.458 C93.4196666,9.51666696 93.2711681,9.5588332 93.0915005,9.5845 L92.7958756,9.62162501 L92.7958756,9.62162501 L92.4480005,9.656 C92.1326656,9.68533348 91.8063355,9.72199978 91.4690005,9.766 C91.1316655,9.81000022 90.8236685,9.89249939 90.5450005,10.0135 C90.2663324,10.1345006 90.0371681,10.3123322 89.8575005,10.547 C89.6778329,10.7816678 89.5880005,11.1079979 89.5880005,11.526 C89.5880005,11.8193348 89.6338334,12.0668323 89.7255005,12.2685 C89.8171676,12.4701677 89.9399997,12.635166 90.0940005,12.7635 C90.2480013,12.891834 90.4294994,12.9834997 90.6385005,13.0385 C90.8475015,13.0935003 91.0729993,13.121 91.3150005,13.121 C91.7990029,13.121 92.1876657,13.051334 92.4810005,12.912 C92.7743353,12.772666 93.0199995,12.5710013 93.2180005,12.307 L93.2400005,12.329 C93.210667,12.5783346 93.2619998,12.772666 93.3940005,12.912 C93.5260011,13.051334 93.7203325,13.121 93.9770005,13.121 C94.0576676,13.121 94.1548333,13.1081668 94.2685005,13.0825 C94.3821677,13.0568332 94.4756668,13.0293335 94.5490005,13 L94.6920005,12.307 L94.5435005,12.3565 C94.4885002,12.3748334 94.4390007,12.384 94.3950005,12.384 C94.3143334,12.384 94.2483341,12.3583336 94.1970005,12.307 C94.1456669,12.2556664 94.1200005,12.1640007 94.1200005,12.032 C94.1200005,11.8999993 94.140167,11.7606674 94.1805005,11.614 C94.220834,11.4673326 94.2520004,11.3353339 94.2740005,11.218 L94.6370005,9.667 C94.6736673,9.51299923 94.712167,9.34250094 94.7525005,9.1555 C94.792834,8.96849906 94.8130005,8.79433414 94.8130005,8.633 C94.8130005,8.34699857 94.7561677,8.11050094 94.6425005,7.9235 C94.5288333,7.73649907 94.3766681,7.58800055 94.1860005,7.478 C93.9953329,7.36799945 93.7753351,7.29100022 93.5260005,7.247 C93.2766659,7.20299978 93.0126685,7.181 92.7340005,7.181 C92.4333323,7.181 92.1436685,7.2176663 91.8650005,7.291 C91.5863324,7.3643337 91.3370016,7.47799923 91.1170005,7.632 C90.8969994,7.78600077 90.7118346,7.97849885 90.5615005,8.2095 C90.4111664,8.44050115 90.3140007,8.71366509 90.2700005,9.029 Z M90.5120005,11.515 C90.5193339,11.2729988 90.5816666,11.0841673 90.6990005,10.9485 C90.8163344,10.8128327 90.9666662,10.7083337 91.1500005,10.635 C91.3333347,10.5616663 91.5404993,10.5085002 91.7715005,10.4755 L92.1166255,10.430125 L92.1166255,10.430125 L92.4590005,10.393 C92.686335,10.3709999 92.9008328,10.3398335 93.1025005,10.2995 C93.3041682,10.2591665 93.4709998,10.1913338 93.6030005,10.096 L93.6250005,10.096 C93.5590002,10.3600013 93.4985008,10.6166654 93.4435005,10.866 C93.3885002,11.1153346 93.2840013,11.3463323 93.1300005,11.559 C92.8073322,12.0576692 92.2756709,12.307 91.5350005,12.307 C91.2709992,12.307 91.0345015,12.2410007 90.8255005,12.109 C90.6164994,11.9769993 90.5120005,11.7790013 90.5120005,11.515 Z M96.2637064,7.313 L95.0867064,13 L96.0107064,13 L96.5497064,10.481 C96.5937066,10.2683323 96.6523727,10.0391679 96.7257064,9.7935 C96.7990401,9.5478321 96.8980391,9.33333425 97.0227064,9.15 C97.1693738,8.92266553 97.3435387,8.72833414 97.5452064,8.567 C97.7468741,8.40566586 97.9760385,8.29200033 98.2327064,8.226 C98.342707,8.19666652 98.4343727,8.18016668 98.5077064,8.1765 L98.7937064,8.171 L98.7937064,8.171 L98.9257064,8.171 C98.9917067,8.171 99.0393729,8.17466663 99.0687064,8.182 L99.2887064,7.181 C99.2495951,7.1712222 99.2121138,7.16633331 99.176262,7.16633331 L99.0439564,7.17825001 L99.0439564,7.17825001 L98.9587064,7.181 C98.4820374,7.181 98.0732081,7.30933205 97.7322064,7.566 C97.3912047,7.82266795 97.1107075,8.14533139 96.8907064,8.534 L96.8687064,8.534 L97.1437064,7.313 L96.2637064,7.313 Z M103.335412,13 L104.996412,5.146 L104.072412,5.146 L103.467412,8.182 L103.445412,8.182 C103.386745,7.99133238 103.29508,7.83183398 103.170412,7.7035 C103.045745,7.57516603 102.900913,7.47250039 102.735912,7.3955 C102.570911,7.31849962 102.396747,7.26350016 102.213412,7.2305 C102.030078,7.19749984 101.850413,7.181 101.674412,7.181 C101.175743,7.181 100.730248,7.28916559 100.337912,7.5055 C99.945577,7.72183442 99.6155803,8.00233161 99.3479123,8.347 C99.0802443,8.69166839 98.874913,9.07849786 98.7319123,9.5075 C98.5889116,9.93650215 98.5174123,10.3673312 98.5174123,10.8 C98.5174123,11.1446684 98.5650785,11.4599986 98.6604123,11.746 C98.7557461,12.0320014 98.8987447,12.2758323 99.0894123,12.4775 C99.2800799,12.6791677 99.5147443,12.8368328 99.7934123,12.9505 C100.07208,13.0641672 100.391077,13.121 100.750412,13.121 C101.131748,13.121 101.470911,13.056834 101.767912,12.9285 C102.064914,12.800166 102.352744,12.5526685 102.631412,12.186 L102.653412,12.186 L102.455412,13 L103.335412,13 Z M99.4524123,10.8 C99.4524123,10.4846651 99.5000785,10.1620017 99.5954123,9.832 C99.6907461,9.50199835 99.8337447,9.20133469 100.024412,8.93 C100.21508,8.65866531 100.449744,8.43683419 100.728412,8.2645 C101.00708,8.09216581 101.33341,8.006 101.707412,8.006 C102.169415,8.006 102.523244,8.14533194 102.768912,8.424 C103.01458,8.70266806 103.137412,9.05466454 103.137412,9.48 C103.137412,9.7733348 103.087913,10.0868317 102.988912,10.4205 C102.889912,10.7541683 102.746913,11.0603319 102.559912,11.339 C102.372911,11.6176681 102.14008,11.8486658 101.861412,12.032 C101.582744,12.2153343 101.267414,12.307 100.915412,12.307 C100.402076,12.307 100.029913,12.1713347 99.7989123,11.9 C99.5679112,11.6286653 99.4524123,11.2620023 99.4524123,10.8 Z" id="PayWithCreditCard" fill="#525151" fill-rule="nonzero"></path>
            </g>
        </g>
    </g>
</svg>