<svg width="47" height="47" xmlns="http://www.w3.org/2000/svg"><g fill-rule="nonzero" fill="none"><path d="M23.5 0C36.48 0 47 10.522 47 23.5 47 36.48 36.48 47 23.5 47S0 36.48 0 23.5C0 10.522 10.52 0 23.5 0z" fill="#0368FF" shape-rendering="geometricPrecision"/><path d="M33.604 26.353A2.658 2.658 0 0135 28.69a2.658 2.658 0 01-2.655 2.655 2.658 2.658 0 01-2.655-2.655 2.658 2.658 0 013.196-2.6 9.052 9.052 0 00-4.121-9.71.38.38 0 11.398-.645 9.805 9.805 0 014.44 10.618zm-1.26 4.233c1.047 0 1.897-.85 1.897-1.896 0-1.046-.85-1.897-1.896-1.897-1.046 0-1.897.85-1.897 1.897 0 1.045.851 1.896 1.897 1.896zm-4.865 1.966a.38.38 0 01.29.7A9.8 9.8 0 0124 34a9.88 9.88 0 01-7.062-2.987c-.38.21-.818.332-1.283.332A2.658 2.658 0 0113 28.69a2.658 2.658 0 012.655-2.656 2.658 2.658 0 012.655 2.656c0 .725-.292 1.381-.765 1.861A9.121 9.121 0 0024 33.241a9.053 9.053 0 003.479-.69zm-13.72-3.862c0 1.045.85 1.896 1.896 1.896 1.046 0 1.897-.85 1.897-1.896 0-1.046-.851-1.897-1.897-1.897s-1.896.85-1.896 1.897zm.758-4.85a.379.379 0 01-.351-.405 9.813 9.813 0 017.18-8.79A2.658 2.658 0 0124 12a2.658 2.658 0 012.655 2.655A2.658 2.658 0 0124 17.31a2.658 2.658 0 01-2.546-1.907 9.057 9.057 0 00-6.532 8.085.38.38 0 01-.405.351zM24 12.758c-1.046 0-1.897.85-1.897 1.896 0 1.046.851 1.897 1.897 1.897s1.897-.851 1.897-1.897S25.046 12.76 24 12.76z" stroke="#FFF" stroke-width=".5" fill="#FFF"/></g></svg>