<svg width="36" height="36" xmlns="http://www.w3.org/2000/svg"><g fill="none" fill-rule="evenodd"><rect fill="#007AB9" width="36" height="36" rx="18" shape-rendering="geometricPrecision"/><path d="M26.965 18.786v6.175H23.33V19.2c0-1.447-.526-2.435-1.842-2.435-1.005 0-1.603.666-1.866 1.31-.096.23-.12.55-.12.873v6.014h-3.638s.05-9.758 0-10.77H19.5v1.527c-.007.012-.017.024-.024.035h.024v-.035c.483-.733 1.346-1.78 3.278-1.78 2.393 0 4.187 1.54 4.187 4.848zM12.058 9C10.814 9 10 9.804 10 10.86c0 1.034.79 1.862 2.01 1.862h.024c1.269 0 2.058-.828 2.058-1.862-.024-1.056-.79-1.86-2.034-1.86zm-1.842 15.961h3.636v-10.77h-3.636v10.77z" fill="#FFF" fill-rule="nonzero"/></g></svg>