<svg width="36" height="36" xmlns="http://www.w3.org/2000/svg"><g fill="none" fill-rule="evenodd"><rect fill="#5FBAF4" width="36" height="36" rx="18" shape-rendering="geometricPrecision"/><path d="M26.634 13.111a7.24 7.24 0 01-2.035.542 3.466 3.466 0 001.558-1.903 7.182 7.182 0 01-2.25.835A3.589 3.589 0 0021.32 11.5c-1.956 0-3.542 1.538-3.542 3.437 0 .27.03.533.092.784a10.162 10.162 0 01-7.302-3.592 3.34 3.34 0 00-.48 1.728 3.41 3.41 0 001.576 2.861 3.602 3.602 0 01-1.606-.43v.043c0 1.666 1.222 3.056 2.842 3.372a3.664 3.664 0 01-1.599.059c.45 1.367 1.76 2.36 3.31 2.388a7.243 7.243 0 01-4.4 1.472 7.45 7.45 0 01-.846-.048c1.57.975 3.43 1.545 5.432 1.545 6.516 0 10.08-5.24 10.08-9.784l-.01-.445a7.07 7.07 0 001.766-1.779z" fill="#FFF" fill-rule="nonzero"/></g></svg>